<?xml version="1.0" encoding="UTF-8" standalone="no"?>
<!-- Created with Inkscape (http://www.inkscape.org/) -->

<svg
   width="42.799999mm"
   height="78.800003mm"
   viewBox="0 0 42.799999 78.800003"
   version="1.1"
   id="svg1"
   xml:space="preserve"
   sodipodi:docname="hsrm.svg"
   inkscape:version="1.4.3 (fcd0343856, 2026-01-01)"
   xmlns:inkscape="http://www.inkscape.org/namespaces/inkscape"
   xmlns:sodipodi="http://sodipodi.sourceforge.net/DTD/sodipodi-0.dtd"
   xmlns="http://www.w3.org/2000/svg"
   xmlns:svg="http://www.w3.org/2000/svg"><sodipodi:namedview
     id="namedview1"
     pagecolor="#ffffff"
     bordercolor="#000000"
     borderopacity="0.25"
     inkscape:showpageshadow="2"
     inkscape:pageopacity="0.0"
     inkscape:pagecheckerboard="0"
     inkscape:deskcolor="#d1d1d1"
     inkscape:document-units="mm"
     inkscape:zoom="1.4142136"
     inkscape:cx="-19.091883"
     inkscape:cy="229.45615"
     inkscape:window-width="2494"
     inkscape:window-height="1371"
     inkscape:window-x="0"
     inkscape:window-y="0"
     inkscape:window-maximized="1"
     inkscape:current-layer="layer1" /><defs
     id="defs1" /><g
     inkscape:label="Layer 1"
     inkscape:groupmode="layer"
     id="layer1"><path
       style="fill:#000000"
       d="m 10.695618,72.953065 c 0.05663,-0.06607 0.337779,-0.239816 0.388063,-0.239816 0.01788,0 0.332295,0.173853 0.698705,0.38634 0.36641,0.212487 0.669323,0.386353 0.67314,0.386368 0.0038,1.6e-5 0.0037,-0.207153 -3.36e-4,-0.460375 -0.006,-0.378713 -5.81e-4,-0.470487 0.03045,-0.517226 0.02075,-0.03125 0.122311,-0.101686 0.225693,-0.156521 l 0.187967,-0.0997 0.165954,0.08724 c 0.271089,0.142505 0.25535,0.101629 0.25535,0.663183 0,0.384437 0.0067,0.486119 0.03154,0.476579 0.01735,-0.0067 0.326168,-0.182159 0.686268,-0.389973 0.475002,-0.274124 0.668373,-0.373504 0.704438,-0.362034 0.02734,0.0087 0.117364,0.0562 0.200052,0.105554 0.174816,0.104354 0.218349,0.182636 0.218349,0.392651 0,0.119747 -0.0098,0.149365 -0.0684,0.206433 -0.03762,0.03664 -0.351029,0.228752 -0.696461,0.426906 -0.345432,0.198153 -0.628059,0.368416 -0.628059,0.378362 0,0.0099 0.08468,0.06492 0.18817,0.12217 0.121725,0.06733 0.196381,0.125731 0.211426,0.165382 0.03042,0.08018 0.02996,0.372802 -6.77e-4,0.430165 -0.0256,0.04793 -0.349884,0.251013 -0.400823,0.251013 -0.01678,0 -0.117843,-0.05047 -0.224574,-0.112163 -0.10673,-0.06169 -0.200173,-0.112163 -0.207651,-0.112163 -0.0075,0 -0.0136,0.356778 -0.0136,0.792841 0,0.596857 -0.0077,0.80248 -0.03109,0.831837 -0.04623,0.05798 -0.337004,0.219783 -0.394971,0.219783 -0.07445,0 -0.379373,-0.18632 -0.415437,-0.253844 -0.02354,-0.04408 -0.02941,-0.246245 -0.02392,-0.824526 0.004,-0.421369 0.0027,-0.766117 -0.003,-0.766108 -0.0056,9e-6 -0.09978,0.05261 -0.209196,0.116892 l -0.198945,0.116875 -0.184872,-0.09818 c -0.10168,-0.054 -0.200624,-0.120305 -0.219875,-0.147346 -0.04109,-0.05772 -0.04844,-0.390065 -0.01021,-0.461648 0.01364,-0.02553 0.108777,-0.09288 0.211426,-0.149658 0.102648,-0.05678 0.186633,-0.112067 0.186633,-0.122858 0,-0.01079 -0.297285,-0.191454 -0.660634,-0.401473 -0.36335,-0.210019 -0.669878,-0.399494 -0.681176,-0.421055 -0.0113,-0.02156 -0.02499,-0.120585 -0.03043,-0.220052 -0.0085,-0.154632 -0.0026,-0.189403 0.04068,-0.239851 z"
       id="path11" /><path
       style="fill:#000000"
       d="m 8.8599372,64.055917 c 0.00912,-0.0091 1.0165017,-0.01662 2.2386248,-0.01662 h 2.222043 v 0.510965 0.510965 h -0.261173 c -0.143645,0 -0.261173,0.0085 -0.261173,0.01885 0,0.01037 0.06259,0.07939 0.139094,0.153389 0.26502,0.256345 0.410072,0.551465 0.456985,0.929772 0.06683,0.538894 -0.115698,1.046017 -0.485715,1.349495 l -0.154792,0.126956 0.17937,0.191067 c 0.324207,0.345348 0.470072,0.721394 0.467808,1.206033 -0.0038,0.807032 -0.412751,1.348551 -1.149969,1.522636 -0.165847,0.03916 -0.365311,0.04509 -1.797119,0.05342 l -1.6105662,0.0094 V 70.08502 69.547796 l 1.3120832,-1.9e-4 c 0.721645,-1.04e-4 1.401938,-0.01054 1.51176,-0.0232 0.5539,-0.06384 0.807704,-0.319993 0.807704,-0.815191 0,-0.410152 -0.22699,-0.693224 -0.646698,-0.806473 -0.08127,-0.02193 -0.49672,-0.029 -1.547966,-0.02633 l -1.4368832,0.0036 v -0.537016 -0.537015 l 1.2996462,-4.43e-4 c 1.388913,-4.73e-4 1.637546,-0.01382 1.871739,-0.10044 0.198569,-0.07345 0.367699,-0.244214 0.421424,-0.425501 0.05605,-0.189121 0.04991,-0.438823 -0.01505,-0.612822 -0.07288,-0.195203 -0.277993,-0.401136 -0.481174,-0.483106 l -0.149058,-0.06014 -1.473762,-0.007 -1.4737612,-0.007 v -0.518517 c 0,-0.285184 0.00746,-0.525994 0.016582,-0.535134 z"
       id="path5" /><path
       style="fill:#000000"
       d="m 8.8599372,60.441772 c 0.00912,-0.0091 1.0165017,-0.01662 2.2386248,-0.01662 h 2.222043 v 0.523428 0.523428 l -0.379323,0.0013 c -0.36433,0.0013 -0.376914,0.003 -0.318392,0.04362 0.514846,0.357525 0.836785,1.027627 0.78127,1.626182 l -0.01608,0.173352 h -0.481463 -0.481464 v -0.343716 c 0,-0.228365 -0.01284,-0.39357 -0.03827,-0.492271 -0.127744,-0.495884 -0.459144,-0.840111 -0.909588,-0.944792 -0.128791,-0.02993 -0.391464,-0.03724 -1.374725,-0.03828 -0.668531,-7.03e-4 -1.2253453,-0.0074 -1.2373647,-0.01481 -0.025198,-0.01561 -0.030263,-1.015787 -0.00527,-1.040831 z"
       id="path4" /><path
       style="fill:#000000"
       d="m 11.95828,50.909886 3.115915,0.0063 0.0067,0.52966 0.0067,0.529659 h -1.157118 c -0.636414,0 -1.157117,0.0048 -1.157117,0.0107 0,0.0059 0.06885,0.07599 0.152992,0.155783 0.199955,0.189619 0.329889,0.393147 0.409624,0.641632 0.119616,0.372765 0.07539,0.908788 -0.104335,1.264516 -0.09559,0.189197 -0.382195,0.464778 -0.584316,0.561837 -0.359532,0.172648 -0.282558,0.166305 -2.131246,0.175624 l -1.6727502,0.0084 v -0.512739 c 0,-0.387704 0.00758,-0.515421 0.031092,-0.523742 0.017101,-0.0061 0.6802934,-0.01432 1.4737612,-0.01838 l 1.44267,-0.0074 0.165573,-0.06414 c 0.355202,-0.1376 0.499851,-0.34373 0.514441,-0.733093 0.01724,-0.460177 -0.175034,-0.749896 -0.590839,-0.890263 -0.159609,-0.05388 -0.200357,-0.05563 -1.594029,-0.06828 l -1.4302324,-0.01298 -0.00671,-0.529756 -0.00671,-0.529756 z"
       id="path3" /><path
       style="fill:#000000"
       d="m 8.7720494,57.272125 c 0.043165,-0.473641 0.1672408,-0.863236 0.3731829,-1.171783 0.1198215,-0.179519 0.3987477,-0.460814 0.4569336,-0.460814 0.027326,0 0.5594901,0.677873 0.5594901,0.712681 0,0.0089 -0.06449,0.08534 -0.143302,0.169767 -0.4114082,0.440707 -0.5417016,1.142607 -0.3063189,1.65016 0.095407,0.205726 0.2069347,0.290048 0.4023639,0.304213 0.364762,0.02644 0.4478,-0.112426 0.608135,-1.016986 0.106775,-0.602394 0.162939,-0.810228 0.278509,-1.030614 0.221812,-0.422982 0.567301,-0.614791 1.048731,-0.582235 0.663438,0.04486 1.134363,0.494629 1.311625,1.25269 0.05623,0.240482 0.06227,0.822422 0.0115,1.107614 -0.04593,0.257951 -0.156695,0.551557 -0.279128,0.739864 -0.09564,0.147101 -0.347671,0.406692 -0.394844,0.406692 -0.01694,0 -0.268871,-0.354734 -0.481443,-0.677901 l -0.04599,-0.06992 0.125054,-0.137112 c 0.228026,-0.250014 0.310325,-0.508142 0.295556,-0.927009 -0.0075,-0.212517 -0.01934,-0.272156 -0.0779,-0.3921 -0.08917,-0.182643 -0.207219,-0.265094 -0.385356,-0.26916 -0.279624,-0.0064 -0.329513,0.09489 -0.519609,1.054754 -0.129882,0.65583 -0.157484,0.761203 -0.249052,0.950773 -0.137813,0.285311 -0.305693,0.466887 -0.535441,0.579125 -0.565419,0.276221 -1.239694,0.101772 -1.6275952,-0.421093 -0.333628,-0.449708 -0.4872255,-1.089835 -0.4250934,-1.771604 z"
       id="path2" /></g></svg>
