<?xml version="1.0" encoding="UTF-8" standalone="no"?>
<!-- Created with Inkscape (http://www.inkscape.org/) -->

<svg
   width="42.799999mm"
   height="78.800003mm"
   viewBox="0 0 42.799999 78.800003"
   version="1.1"
   id="svg1"
   xml:space="preserve"
   sodipodi:docname="panel1.svg"
   inkscape:version="1.4.3 (fcd0343856, 2026-01-01)"
   xmlns:inkscape="http://www.inkscape.org/namespaces/inkscape"
   xmlns:sodipodi="http://sodipodi.sourceforge.net/DTD/sodipodi-0.dtd"
   xmlns="http://www.w3.org/2000/svg"
   xmlns:svg="http://www.w3.org/2000/svg"><sodipodi:namedview
     id="namedview1"
     pagecolor="#ffffff"
     bordercolor="#000000"
     borderopacity="0.25"
     inkscape:showpageshadow="2"
     inkscape:pageopacity="0.0"
     inkscape:pagecheckerboard="0"
     inkscape:deskcolor="#d1d1d1"
     inkscape:document-units="mm"
     inkscape:zoom="2.0000001"
     inkscape:cx="-75.999998"
     inkscape:cy="148.25"
     inkscape:window-width="2494"
     inkscape:window-height="1371"
     inkscape:window-x="0"
     inkscape:window-y="0"
     inkscape:window-maximized="1"
     inkscape:current-layer="layer1" /><defs
     id="defs1" /><g
     inkscape:label="Layer 1"
     inkscape:groupmode="layer"
     id="layer1"><path
       style="fill:#000000"
       d="m 8.940688,10.70907 c 0.1051857,-0.232106 0.3242484,-0.30247 0.6904941,-0.22179 0.3930909,0.08659 0.6540009,0.240671 0.9906359,0.585009 0.243631,0.249207 0.317628,0.30019 0.435688,0.30019 0.117689,0 0.164543,-0.03355 0.447712,-0.320598 0.161645,-0.163858 0.323174,-0.301091 0.422852,-0.359249 0.209018,-0.121954 0.508239,-0.216036 0.745364,-0.234359 0.159067,-0.01229 0.204072,-0.0067 0.287305,0.0359 0.120345,0.06155 0.172118,0.116697 0.222113,0.236598 0.05722,0.13724 0.05722,2.392438 0,2.529678 -0.105909,0.254001 -0.313549,0.326269 -0.702104,0.244364 -0.408068,-0.08602 -0.656623,-0.231791 -1.00079,-0.58695 -0.256515,-0.264706 -0.305123,-0.299125 -0.422452,-0.299125 -0.117378,0 -0.193476,0.0511 -0.408064,0.274041 -0.352581,0.366296 -0.576557,0.504833 -0.9683479,0.598959 -0.4204596,0.101014 -0.6393286,0.03349 -0.7497332,-0.231289 -0.032627,-0.07825 -0.038179,-0.265234 -0.037713,-1.27027 5.086e-4,-1.097134 0.00376,-1.185598 0.04704,-1.281107 z"
       id="path10" /><path
       style="fill:#000000"
       d="m 9.3819924,12.947032 c 0.1154431,0.127827 0.2770576,0.01386 0.5575639,-0.393166 0.2798637,-0.406099 0.2258897,-0.383782 0.9282067,-0.383782 h 0.58948 l 0.11707,0.129154 c 0.373835,0.412423 0.437639,0.471442 0.501585,0.463972 l 0.06321,-0.0074 v -0.760217 -0.760217 l -0.0581,-0.0082 c -0.05909,-0.0084 -0.164478,0.08815 -0.493289,0.451819 l -0.128539,0.142167 h -0.598943 -0.598942 l -0.09794,-0.08866 C 10.109485,11.683742 9.9755722,11.516431 9.86576,11.360712 9.7559478,11.204992 9.6407928,11.059821 9.6098599,11.03811 9.5335519,10.98455 9.4504507,10.98848 9.3905721,11.04849 c -0.047913,0.04801 -0.049747,0.08308 -0.049747,0.951424 0,0.803945 0.00446,0.906509 0.041165,0.947155 z"
       id="path9" /><path
       style="fill:#000000"
       d="M 8.8939435,3.4112329 C 8.9247003,3.3090726 9.061492,3.1760626 9.1656083,3.1470785 9.2157021,3.1331333 9.6300861,3.122476 10.125294,3.122397 c 0.854905,-1.363e-4 0.873613,9.305e-4 0.981051,0.055943 0.220441,0.1128731 0.210273,0.056312 0.224371,1.2480479 l 0.01244,1.0512963 0.447725,0.014878 c 0.247545,0.00823 0.492209,0.028976 0.547219,0.04641 0.479054,0.1518216 0.823317,0.5565397 0.907496,1.0668584 0.09068,0.5497491 -0.2197,1.1268315 -0.735292,1.3670982 -0.227617,0.1060701 -0.409597,0.1339386 -0.876118,0.1341694 -0.395089,1.955e-4 -0.501995,-0.022329 -0.536752,-0.1130916 -0.02995,-0.078207 -0.01511,-0.445895 0.01986,-0.4920923 0.05535,-0.073119 0.179839,-0.092532 0.593384,-0.092532 0.296345,0 0.415089,-0.00936 0.483861,-0.038159 C 12.435048,7.2705221 12.580238,7.0568798 12.581366,6.8020131 12.582149,6.6251496 12.539099,6.5088412 12.424403,6.3779389 12.269604,6.2012674 12.190986,6.1772722 11.734912,6.1674983 l -0.404196,-0.00866 v 0.2666961 c 0,0.3120831 -0.04219,0.4189704 -0.2006,0.508185 -0.09355,0.052684 -0.112242,0.053513 -1.049948,0.046557 l -0.9547054,-0.00708 -0.09299,-0.071099 c -0.057755,-0.044159 -0.087747,-0.084788 -0.079155,-0.1072264 0.00772,-0.020167 0.00297,-0.0294 -0.010754,-0.020899 -0.013524,0.00838 -0.025445,0.00615 -0.026492,-0.00494 C 8.9150216,6.757941 8.9070516,6.726434 8.8983566,6.699017 8.8736586,6.621148 8.8694576,3.4925607 8.8939466,3.4112343 Z"
       id="path8" /><path
       style="fill:#000000"
       d="m 12.731196,7.1850559 c 0.0042,0 0.04613,-0.042061 0.09328,-0.093469 l 0.08572,-0.093469 -0.09328,0.085896 c -0.08682,0.07995 -0.104712,0.1010424 -0.08572,0.101042 z"
       id="path7" /><path
       style="fill:#000000"
       d="m 9.1493954,3.6706111 c 0.00416,0 0.046131,-0.042061 0.093276,-0.093469 l 0.085719,-0.093469 -0.093276,0.085896 c -0.086819,0.07995 -0.1047126,0.1010424 -0.085719,0.101042 z"
       id="path6" /><path
       style="fill:#000000"
       d="m 8.7936074,17.977642 c 0.027361,-0.02742 0.061622,-0.04985 0.076136,-0.04985 0.014514,0 0.3638418,0.06169 0.776284,0.137089 0.4124426,0.0754 0.7587476,0.137088 0.7695666,0.137088 0.01082,0 0.01967,-0.244263 0.01967,-0.542807 0,-0.450943 0.0066,-0.552183 0.03872,-0.598204 0.06948,-0.09939 0.161989,-0.07307 0.389713,0.110883 0.113214,0.09145 0.723525,0.585854 1.356248,1.098668 l 1.150404,0.93239 v 0.09716 c 0,0.0762 -0.01345,0.105994 -0.06233,0.138087 -0.05914,0.03883 -0.10139,0.03376 -0.827048,-0.09925 -0.420596,-0.0771 -0.773115,-0.140118 -0.783375,-0.14005 -0.01026,6.9e-5 -0.01865,0.244388 -0.01865,0.542932 0,0.450942 -0.0066,0.552182 -0.03872,0.598203 -0.09224,0.131956 -0.09736,0.128487 -1.541922,-1.043169 -1.3123742,-1.064442 -1.3544441,-1.101216 -1.3544441,-1.183944 0,-0.05215 0.019364,-0.104783 0.049747,-0.135229 z"
       id="path1" /><path
       d="m 12.898893,38.415358 -4.88e-4,0.0012 v 3.01e-4 c -0.04487,0.110398 -0.09881,0.216345 -0.16042,0.316598 -0.06119,0.09949 -0.131153,0.194394 -0.20844,0.283449 -0.39509,0.455219 -0.978007,0.743261 -1.627696,0.743261 h -5.9e-4 v -2.3e-4 c -0.594774,-1.9e-4 -1.133543,-0.241426 -1.5232426,-0.631353 -0.38932,-0.38932 -0.6303296,-0.92752 -0.6306331,-1.521825 h -2.296e-4 v -0.0012 -5.74e-4 h 2.296e-4 c 1.377e-4,-0.594676 0.2413026,-1.133294 0.6311542,-1.52307 l -1.579e-4,-1.86e-4 c 0.3893641,-0.389323 0.9276394,-0.630371 1.5222494,-0.630712 v -2.3e-4 h 0.0012 0.0015 v 2.3e-4 c 0.261853,1.58e-4 0.512884,0.04703 0.744594,0.132557 0.09437,0.03477 0.185891,0.07626 0.273693,0.12356 0.450702,0.242604 0.80525,0.641376 0.991179,1.123737 l 0.03861,0.09999 h -0.106919 -0.7165 -0.04134 l -0.0216,-0.03595 -1.58e-4,-2.73e-4 -1.86e-4,-3.01e-4 -1.59e-4,-2.72e-4 c -0.03344,-0.05458 -0.0708,-0.10662 -0.111033,-0.155664 l -1.58e-4,1.57e-4 c -0.04095,-0.04951 -0.0851,-0.09613 -0.13198,-0.138909 v -2.73e-4 c -0.241984,-0.221381 -0.564874,-0.356595 -0.919384,-0.356595 h -5.9e-4 v -2.58e-4 c -0.375806,7.6e-5 -0.716575,0.152903 -0.9632407,0.399607 l -1.575e-4,-1.58e-4 C 9.6917133,36.88841 9.5391892,37.228723 9.5389621,37.604226 h 2.295e-4 v 0.0012 5.74e-4 h -2.295e-4 c 7.55e-5,0.376072 0.1527895,0.716803 0.3992648,0.963203 0.2464761,0.2464 0.5867891,0.398886 0.9624821,0.399189 v -3.01e-4 h 0.0012 9.44e-4 v 3.01e-4 c 0.238967,-7.6e-5 0.46392,-0.06199 0.659073,-0.170213 0.03079,-0.01712 0.06203,-0.03618 0.09312,-0.05679 0.155068,-0.103214 0.288157,-0.237328 0.3897,-0.39323 l 0.02191,-0.0336 h 0.03956 0.724547 0.108452 z m 0.512804,-1.161166 v 0.70253 0.07357 h -0.07353 -1.896835 -0.07353 v -0.07357 -0.70253 -0.07353 h 0.07353 1.896835 0.07353 z"
       id="path1-7"
       style="stroke-width:0.0379602" /></g></svg>
